<?xml version="1.0" encoding="UTF-8"?>
<svg version="1.1" xmlns="http://www.w3.org/2000/svg" width="1194" height="1194">
<path d="M0 0 C3.66287161 0.01709055 7.32508846 0.00688788 10.98793793 -0.01032257 C37.77313453 -0.11665696 64.38556791 1.69369507 90.89550781 5.64111328 C91.5944516 5.74338226 92.29339539 5.84565125 93.01351929 5.95101929 C152.11564143 14.64890032 209.58691671 32.50624162 263.39550781 58.39111328 C265.06178223 59.19137939 265.06178223 59.19137939 266.76171875 60.0078125 C309.69180768 80.75436175 349.90831098 106.66505279 386.39550781 137.39111328 C387.42392627 138.2455537 388.45258576 139.09970406 389.48144531 139.95361328 C396.78549608 146.04396699 403.82069118 152.380498 410.76611328 158.875 C412.39571861 160.39130942 414.03606278 161.89499858 415.68066406 163.39501953 C424.99708203 171.90113352 434.24842458 180.52238582 442.43066406 190.14501953 C444.58545689 192.60825189 446.81362091 194.99071742 449.05419922 197.37573242 C455.12255345 203.83857284 460.87555846 210.4487879 466.39550781 217.39111328 C467.30327902 218.50787986 468.21219634 219.62371549 469.12207031 220.73876953 C487.73669375 243.63372758 504.38225069 267.99563715 519.39550781 293.39111328 C520.06598145 294.50993896 520.06598145 294.50993896 520.75 295.65136719 C567.75666168 374.29903653 593.90911502 464.39569523 601.78662109 592.99560547 C601.76953054 596.65847708 601.77973321 600.32069393 601.79694366 603.9835434 C601.90327806 630.76874 600.09292602 657.38117337 596.14550781 683.89111328 C595.99210434 684.93952896 595.99210434 684.93952896 595.83560181 686.00912476 C587.13772077 745.1112469 569.28037947 802.58252218 543.39550781 856.39111328 C542.86199707 857.50196289 542.32848633 858.6128125 541.77880859 859.75732422 C521.03225934 902.68741315 495.1215683 942.90391645 464.39550781 979.39111328 C463.5410674 980.41953174 462.68691703 981.44819122 461.83300781 982.47705078 C455.7426541 989.78110155 449.40612309 996.81629665 442.91162109 1003.76171875 C441.39531167 1005.39132408 439.89162251 1007.03166825 438.39160156 1008.67626953 C429.88548757 1017.99268749 421.26423528 1027.24403005 411.64160156 1035.42626953 C409.17836921 1037.58106236 406.79590367 1039.80922638 404.41088867 1042.04980469 C397.94804825 1048.11815892 391.33783319 1053.87116393 384.39550781 1059.39111328 C383.27874123 1060.29888449 382.1629056 1061.2078018 381.04785156 1062.11767578 C358.15289351 1080.73229922 333.79098394 1097.37785616 308.39550781 1112.39111328 C307.64962402 1112.8380957 306.90374023 1113.28507812 306.13525391 1113.74560547 C227.48758456 1160.75226715 137.39092586 1186.90472049 8.79101562 1194.78222656 C5.12814401 1194.76513601 1.46592717 1194.77533868 -2.1969223 1194.79254913 C-28.9821189 1194.89888353 -55.59455228 1193.08853149 -82.10449219 1189.14111328 C-82.80343597 1189.0388443 -83.50237976 1188.93657532 -84.22250366 1188.83120728 C-143.32462581 1180.13332624 -200.79590109 1162.27598494 -254.60449219 1136.39111328 C-255.7153418 1135.85760254 -256.82619141 1135.3240918 -257.97070312 1134.77441406 C-300.90079206 1114.02786481 -341.11729536 1088.11717377 -377.60449219 1057.39111328 C-378.63291064 1056.53667287 -379.66157013 1055.6825225 -380.69042969 1054.82861328 C-387.99448045 1048.73825957 -395.02967556 1042.40172856 -401.97509766 1035.90722656 C-403.60470298 1034.39091714 -405.24504716 1032.88722798 -406.88964844 1031.38720703 C-416.2060664 1022.88109304 -425.45740896 1014.25984075 -433.63964844 1004.63720703 C-435.79444126 1002.17397468 -438.02260529 999.79150914 -440.26318359 997.40649414 C-446.33153783 990.94365372 -452.08454283 984.33343866 -457.60449219 977.39111328 C-458.5122634 976.2743467 -459.42118071 975.15851107 -460.33105469 974.04345703 C-478.94567813 951.14849898 -495.59123507 926.78658941 -510.60449219 901.39111328 C-511.05147461 900.64522949 -511.49845703 899.8993457 -511.95898438 899.13085938 C-558.96564605 820.48319003 -585.1180994 730.38653133 -592.99560547 601.78662109 C-592.97851492 598.12374948 -592.98871759 594.46153264 -593.00592804 590.79868317 C-593.11226243 564.01348656 -591.3019104 537.40105319 -587.35449219 510.89111328 C-587.25222321 510.19216949 -587.14995422 509.49322571 -587.04458618 508.77310181 C-578.34670515 449.67097966 -560.48936385 392.19970438 -534.60449219 338.39111328 C-533.80422607 336.72483887 -533.80422607 336.72483887 -532.98779297 335.02490234 C-512.24124371 292.09481341 -486.33055267 251.87831011 -455.60449219 215.39111328 C-454.75005177 214.36269483 -453.89590141 213.33403534 -453.04199219 212.30517578 C-446.95163848 205.00112502 -440.61510747 197.96592991 -434.12060547 191.02050781 C-432.60429605 189.39090249 -431.10060689 187.75055831 -429.60058594 186.10595703 C-421.09447195 176.78953907 -412.47321965 167.53819651 -402.85058594 159.35595703 C-400.38735358 157.20116421 -398.00488804 154.97300018 -395.61987305 152.73242188 C-389.15703263 146.66406764 -382.54681757 140.91106263 -375.60449219 135.39111328 C-374.48772561 134.48334207 -373.37188997 133.57442476 -372.25683594 132.66455078 C-349.36187789 114.04992734 -324.99996832 97.4043704 -299.60449219 82.39111328 C-298.8586084 81.94413086 -298.11272461 81.49714844 -297.34423828 81.03662109 C-218.69656893 34.02995941 -128.59991024 7.87750607 0 0 Z " fill="#FEFEFE" transform="translate(592.6044921875,-0.39111328125)"/>
<path d="M0 0 C1.77314074 1.5361895 3.52251147 3.10014697 5.25 4.6875 C5.73952148 5.13464355 6.22904297 5.58178711 6.73339844 6.04248047 C23.22293511 21.27203669 33.62140434 40.08463084 39.25 61.6875 C39.61931641 63.08742188 39.61931641 63.08742188 39.99609375 64.515625 C41.439249 71.32333664 41.51246957 78.25343002 41.625 85.1875 C41.65118408 86.11755859 41.67736816 87.04761719 41.7043457 88.00585938 C41.74657288 106.58581613 35.46206678 123.88241564 29.0625 141.0625 C28.25656533 143.25922708 27.45190333 145.45642146 26.6484375 147.65405273 C24.59449214 153.26089437 22.52335567 158.86119943 20.4463501 164.45953369 C18.59560676 169.45316989 16.75739085 174.45140412 14.91796875 179.44921875 C12.13031572 187.01645353 9.33203655 194.57969076 6.52734375 202.140625 C2.09746313 214.08460538 -2.29793542 226.04115384 -6.6875 238 C-7.0608548 239.01703003 -7.43420959 240.03406006 -7.81887817 241.08190918 C-9.33066682 245.2000881 -10.84239105 249.31829062 -12.35386658 253.43658447 C-14.97322748 260.57314063 -17.5952848 267.7087017 -20.21875 274.84375 C-27.85590954 295.61680307 -35.47403049 316.39660819 -43.0625 337.1875 C-49.78124088 355.59489993 -56.53403696 373.98950963 -63.3125 392.375 C-63.75306732 393.56999115 -64.19363464 394.7649823 -64.64755249 395.9961853 C-66.40863695 400.7727894 -68.16976506 405.54937741 -69.93095398 410.32594299 C-74.25258724 422.04807471 -78.56642197 433.77306381 -82.875 445.5 C-83.23775024 446.48723053 -83.60050049 447.47446106 -83.97424316 448.49160767 C-89.03517658 462.26754502 -94.07650223 476.05056704 -99.10766602 489.83740234 C-101.89121422 497.4646487 -104.67955321 505.0901404 -107.46955872 512.71502686 C-109.22282469 517.50735216 -110.97406288 522.30038015 -112.71777344 527.09619141 C-127.19097238 566.8922806 -143.2113747 602.15341058 -183.29174805 621.47705078 C-210.65096482 634.02251884 -241.26131342 634.76559845 -269.3125 624.375 C-276.59407294 621.4477345 -283.6772255 618.08204046 -290.75 614.6875 C-290.75 614.0275 -290.75 613.3675 -290.75 612.6875 C-291.77867187 612.36265625 -291.77867187 612.36265625 -292.828125 612.03125 C-296.60645765 610.29362108 -299.38718135 607.91270226 -302.5 605.1875 C-303.11907227 604.64778564 -303.73814453 604.10807129 -304.37597656 603.55200195 C-311.88811055 596.90793243 -318.20656378 589.76521604 -323.875 581.5 C-324.25881836 580.94916748 -324.64263672 580.39833496 -325.03808594 579.83081055 C-334.84874813 565.00511998 -339.83185088 547.57444908 -345.50189209 530.88751221 C-346.42535859 528.17679728 -347.35741111 525.46906893 -348.28965664 522.76136303 C-349.18875544 520.14839973 -350.08446071 517.53428453 -350.97892952 514.91973305 C-351.6117476 513.07028344 -352.24598015 511.22131802 -352.88023376 509.37236023 C-353.25805496 508.25972305 -353.63587616 507.14708588 -354.02514648 506.00073242 C-354.3593309 505.02005295 -354.69351532 504.03937347 -355.03782654 503.02897644 C-355.75 500.6875 -355.75 500.6875 -355.75 498.6875 C-355.04322617 498.68511165 -354.33645233 498.68272329 -353.60826111 498.68026257 C-336.34467303 498.62091181 -319.08123198 498.54523511 -301.8177948 498.45178509 C-293.46903757 498.40697819 -285.12032156 498.36752949 -276.77148438 498.34106445 C-269.48758707 498.31796118 -262.20382189 498.28442784 -254.92002964 498.23879844 C-251.06970378 498.2150309 -247.21950743 498.19619508 -243.36911011 498.18988609 C-216.56619964 498.89431831 -216.56619964 498.89431831 -191.375 491.0625 C-190.71636963 490.71695068 -190.05773926 490.37140137 -189.37915039 490.01538086 C-176.02369966 482.71169545 -165.68916505 470.40267881 -160.72750473 456.0320282 C-157.69219552 445.64673089 -157.45430644 434.63157465 -157.49121094 423.88671875 C-157.4877063 422.59854752 -157.48420166 421.31037628 -157.48059082 419.98316956 C-157.4716013 416.50225423 -157.47495248 413.0214596 -157.48134899 409.5405426 C-157.48647101 405.87500726 -157.48170134 402.20948113 -157.47857666 398.54394531 C-157.47495854 392.40151135 -157.47968295 386.2591258 -157.48925781 380.11669922 C-157.50017713 373.03022187 -157.496583 365.94385933 -157.485605 358.85738468 C-157.47651672 352.74406232 -157.47525321 346.6307744 -157.48048234 340.51744747 C-157.4835886 336.87834222 -157.48404776 333.23929092 -157.47740936 329.60018921 C-157.47053569 325.55109889 -157.48007368 321.50220582 -157.49121094 317.453125 C-157.48513824 315.66075157 -157.48513824 315.66075157 -157.47894287 313.83216858 C-157.50814684 308.09961241 -157.5987317 303.04415922 -159.75 297.6875 C-162.03504837 295.71622012 -162.03504837 295.71622012 -164.75 294.6875 C-165.36875 294.39875 -165.9875 294.11 -166.625 293.8125 C-170.11375223 293.60727928 -172.68376883 295.15438442 -175.75 296.6875 C-179.19586564 300.13336564 -178.87556227 303.78783047 -178.88130188 308.49209595 C-178.88531006 309.67795288 -178.88931824 310.86380981 -178.89344788 312.08560181 C-178.89291916 313.38331512 -178.89239044 314.68102844 -178.8918457 316.01806641 C-178.89487859 317.40142935 -178.89840041 318.7847913 -178.90237427 320.16815186 C-178.91025554 323.14629858 -178.91540536 326.12443336 -178.91866493 329.10258865 C-178.92458634 333.81878553 -178.94113881 338.53490739 -178.96000671 343.25106812 C-178.96634404 344.86754031 -178.97266967 346.48401256 -178.97898388 348.10048485 C-178.98214969 348.91002074 -178.9853155 349.71955663 -178.98857725 350.55362391 C-179.03059723 361.53036479 -179.06360891 372.50707079 -179.07592773 383.48388672 C-179.08432637 390.89155638 -179.10688465 398.29904011 -179.1452834 405.70661676 C-179.16498575 409.62269927 -179.17746818 413.53850423 -179.17244911 417.45463943 C-179.16777897 421.1435004 -179.18173563 424.83183648 -179.20946121 428.52059174 C-179.21958916 430.50578011 -179.2101604 432.49103877 -179.19996643 434.47622681 C-179.32740864 446.7707971 -183.26975251 456.46623766 -191.4921875 465.62890625 C-202.97581987 476.65986432 -217.09192567 476.84229684 -232.06054688 476.80102539 C-233.50013222 476.80074293 -234.93971771 476.80090239 -236.37930298 476.8014679 C-240.26714777 476.80175359 -244.15496141 476.79589379 -248.042799 476.78889394 C-252.1133699 476.78262237 -256.18394161 476.7820536 -260.2545166 476.78086853 C-267.95368832 476.7777664 -275.65284576 476.76956814 -283.3520112 476.75951904 C-292.12107265 476.74832311 -300.8901348 476.74283869 -309.65920162 476.73782361 C-327.68947583 476.72738455 -345.71973676 476.70980684 -363.75 476.6875 C-365.84993597 470.82336065 -367.93633484 464.95463314 -370.01106262 459.08152771 C-370.71665168 457.08992022 -371.42573543 455.09954686 -372.13856506 453.11051941 C-379.30732226 433.09342665 -379.30732226 433.09342665 -380.95057678 422.5448761 C-381.84229894 417.42650657 -383.05288196 413.42928121 -386.75 409.6875 C-396.14421666 403.80639418 -407.69234467 401.42261157 -418.33251953 398.81884766 C-423.66835361 397.49387871 -428.80596134 395.72713591 -434.00439453 393.93798828 C-437.97341029 392.61291341 -441.96658179 391.43671256 -445.98828125 390.28515625 C-455.42078915 387.56492999 -464.67071369 384.35803136 -473.9375 381.125 C-483.65064791 377.73723175 -493.32412291 374.46189559 -503.24047852 371.70922852 C-509.3844268 369.92053818 -515.41828643 367.82100295 -521.45361328 365.69824219 C-523.61267745 364.94181719 -525.77678129 364.20127356 -527.94140625 363.4609375 C-543.6350995 358.00882975 -557.5935685 350.89594749 -570.75 340.6875 C-571.51957031 340.09195312 -572.28914063 339.49640625 -573.08203125 338.8828125 C-578.77852038 334.18629878 -583.26529282 328.52086912 -587.75 322.6875 C-588.3584375 321.90632813 -588.966875 321.12515625 -589.59375 320.3203125 C-598.17144357 308.74042618 -603.81773739 295.48020902 -607.75 281.6875 C-608.0696875 280.61757813 -608.389375 279.54765625 -608.71875 278.4453125 C-616.18531094 249.61609109 -607.4256999 221.45142258 -594.75 195.6875 C-594.09 195.6875 -593.43 195.6875 -592.75 195.6875 C-592.50765625 194.98625 -592.2653125 194.285 -592.015625 193.5625 C-588.56365571 185.72098952 -582.56729317 178.80046988 -575.75 173.6875 C-575.42 173.0275 -575.09 172.3675 -574.75 171.6875 C-574.09 171.6875 -573.43 171.6875 -572.75 171.6875 C-572.316875 172.63625 -571.88375 173.585 -571.4375 174.5625 C-569.95697799 177.88791937 -569.95697799 177.88791937 -566.75 179.6875 C-564.56717642 179.98825181 -564.56717642 179.98825181 -562.11566353 179.94197559 C-561.15832349 179.94780779 -560.20098345 179.95363998 -559.21463311 179.95964891 C-558.1606624 179.95586958 -557.10669169 179.95209026 -556.02078247 179.94819641 C-554.90285368 179.95202196 -553.78492489 179.95584751 -552.63311946 179.95978898 C-548.86750779 179.97015087 -545.10204769 179.96612074 -541.33642578 179.9621582 C-538.64461761 179.96650293 -535.95282076 179.9716204 -533.26101685 179.97764587 C-526.69642913 179.99041272 -520.13188228 179.99218407 -513.56728424 179.98984561 C-508.23224852 179.98806436 -502.89722524 179.98980793 -497.56219101 179.99407005 C-496.42429267 179.99496284 -496.42429267 179.99496284 -495.26340648 179.99587366 C-493.72242173 179.99708538 -492.18143699 179.99829951 -490.64045225 179.99951603 C-476.1799305 180.0103994 -461.71943205 180.00822542 -447.25890897 180.00213119 C-434.02546847 179.99696234 -420.7921016 180.00821518 -407.55867566 180.02722941 C-393.97693052 180.04659477 -380.39522023 180.05486603 -366.81346118 180.05110615 C-359.18582861 180.04919199 -351.55825869 180.05170243 -343.93063736 180.06582069 C-337.43653979 180.07771897 -330.94254342 180.07915698 -324.4484445 180.06703053 C-321.13439173 180.06113058 -317.820563 180.06169223 -314.5065155 180.07203293 C-310.91523183 180.08243271 -307.32445 180.07445376 -303.73318481 180.0617218 C-302.68367555 180.06909609 -301.63416628 180.07647037 -300.5528537 180.08406812 C-293.63592283 180.0811054 -293.63592283 180.0811054 -287.75 176.6875 C-285.26613941 172.96170911 -285.3695788 171.10038598 -285.75 166.6875 C-287.45184371 162.85835165 -288.90576242 161.24001943 -292.75 159.6875 C-294.96684949 159.38704898 -294.96684949 159.38704898 -297.34955978 159.42578697 C-298.27365701 159.41832148 -299.19775424 159.41085599 -300.14985442 159.40316427 C-301.66735648 159.40606637 -301.66735648 159.40606637 -303.21551514 159.4090271 C-304.29290711 159.4032347 -305.37029908 159.3974423 -306.48033929 159.39147437 C-310.10248279 159.37442412 -313.72449926 159.37159351 -317.34667969 159.36865234 C-319.93837295 159.35935765 -322.5300632 159.34918967 -325.12174988 159.33821106 C-330.70764374 159.3159309 -336.29351925 159.30092218 -341.87944794 159.29084396 C-349.95576837 159.27626205 -358.03202491 159.25072661 -366.10830787 159.22251268 C-379.21134849 159.17703581 -392.3143983 159.14042471 -405.41748047 159.109375 C-418.14633804 159.07919312 -430.87517312 159.04484452 -443.60400391 159.00488281 C-444.38853285 159.00242126 -445.17306179 158.99995972 -445.98136434 158.99742357 C-449.91709276 158.98504904 -453.85282091 158.9725925 -457.78854895 158.96009517 C-490.44233546 158.85651397 -523.09614661 158.76731514 -555.75 158.6875 C-544.58256187 149.52401129 -529.61256562 145.19374674 -516.22680664 140.18432617 C-510.68450941 138.10997359 -505.1496171 136.01597986 -499.61328125 133.92578125 C-498.46731476 133.49379425 -497.32134827 133.06180725 -496.14065552 132.61672974 C-485.0686102 128.44000377 -474.02394313 124.19342999 -462.98324585 119.93466187 C-444.92436359 112.96879836 -426.84817115 106.05062497 -408.75 99.1875 C-391.83698701 92.77339257 -374.94191146 86.31452264 -358.0625 79.8125 C-340.19774503 72.93134681 -322.32368769 66.07526179 -304.4375 59.25 C-303.30357819 58.81727783 -302.16965637 58.38455566 -301.00137329 57.9387207 C-294.08805698 55.30068095 -287.1744142 52.66349763 -280.26068115 50.02655029 C-270.75873861 46.40230235 -261.25725552 42.77685143 -251.75613403 39.15045166 C-248.29262487 37.82876578 -244.82881997 36.50785721 -241.36499023 35.18701172 C-230.81181157 31.16100573 -220.26476734 27.1204287 -209.734375 23.03515625 C-207.88998112 22.32078229 -206.0455803 21.60642625 -204.20117188 20.89208984 C-200.82522593 19.58429729 -197.45192595 18.26997724 -194.08007812 16.95166016 C-192.60034845 16.37770267 -191.12053622 15.80395796 -189.640625 15.23046875 C-188.9778656 14.96911636 -188.3151062 14.70776398 -187.63226318 14.43849182 C-184.83344338 13.35935612 -182.78171933 12.6875 -179.75 12.6875 C-179.74120064 13.94204735 -179.74120064 13.94204735 -179.73222351 15.22193909 C-179.67420375 23.12251417 -179.60207406 31.02280934 -179.51428509 38.92311192 C-179.46964951 42.98428405 -179.43037868 47.04535745 -179.40356445 51.10668945 C-179.37746306 55.02966002 -179.33701316 58.95224924 -179.28681374 62.87498283 C-179.27019103 64.36796241 -179.25864821 65.86100787 -179.25238609 67.35406685 C-179.24269433 69.45332487 -179.21457774 71.55161735 -179.18237305 73.65063477 C-179.17126999 74.84310318 -179.16016693 76.03557159 -179.14872742 77.26417542 C-178.57491432 82.19072018 -177.30965124 86.30114334 -173.5 89.6875 C-169.78378093 91.03885239 -167.55300159 90.70616114 -163.75 89.6875 C-159.95997655 87.39046678 -159.95997655 87.39046678 -158.13002014 83.52986145 C-157.65835676 80.00205416 -157.57342073 76.51238097 -157.54467773 72.9597168 C-157.53477814 72.19820816 -157.52487854 71.43669952 -157.51467896 70.65211487 C-157.4832118 68.14701394 -157.4583653 65.64189408 -157.43359375 63.13671875 C-157.41301144 61.39508077 -157.39201463 59.65344765 -157.37062073 57.91181946 C-157.31553193 53.33669982 -157.26606468 48.76153609 -157.21777344 44.18634033 C-157.16746187 39.51416111 -157.11182629 34.84204561 -157.05664062 30.16992188 C-156.94922049 21.00916907 -156.84773991 11.84836084 -156.75 2.6875 C-149.48065558 -0.09814663 -142.20682674 -2.87183395 -134.92993164 -5.63769531 C-132.46046298 -6.57691361 -129.9927359 -7.52036413 -127.52563477 -8.46582031 C-83.68094654 -25.26155834 -39.37416311 -31.13830664 0 0 Z " fill="#000000" transform="translate(826.75,344.3125)"/>
<path d="M0 0 C0 0.66 0 1.32 0 2 C0.56074219 2.08378906 1.12148438 2.16757812 1.69921875 2.25390625 C11.06097209 5.289721 18.11584999 16.50784201 22.46875 24.796875 C29.87490028 40.38423779 30.55105457 58.1190204 24.875 74.41796875 C20.43562504 83.85502301 12.84730848 91.59811897 5.55906677 98.87571716 C4.63993203 99.80517641 3.72079728 100.73463565 2.77380997 101.69226032 C0.25073378 104.24310189 -2.28140775 106.78476462 -4.81535494 109.32480133 C-7.55764519 112.0768389 -10.2914192 114.83731712 -13.02650452 117.59651184 C-19.61472941 124.2389537 -26.21710949 130.86723751 -32.82112041 137.49397883 C-35.93776656 140.62200496 -39.05284183 143.75159458 -42.16807365 146.88102913 C-52.53288676 157.29200561 -62.90113031 167.69954542 -73.28009129 178.09641933 C-75.96579883 180.78683589 -78.65150095 183.47725785 -81.3371582 186.16772461 C-82.33828861 187.17063838 -82.33828861 187.17063838 -83.35964387 188.19381303 C-94.18033851 199.03507346 -104.97701111 209.89992999 -115.76381434 220.77490162 C-126.8594199 231.96045473 -137.97569203 243.12512547 -149.11258739 254.26957184 C-155.35695806 260.51917903 -161.59210616 266.77740455 -167.80429268 273.05901909 C-173.09153583 278.40520219 -178.39735222 283.73204992 -183.72795773 289.03501248 C-186.44375457 291.73785476 -189.15007218 294.44861561 -191.83274078 297.18437576 C-212.01319351 317.7419105 -212.01319351 317.7419105 -226 319 C-228.10955286 319.46591364 -230.21437505 319.95446693 -232.31079102 320.47631836 C-234.37444565 320.93407178 -236.43883969 321.38850268 -238.50390625 321.83984375 C-239.62909164 322.08867813 -240.75427704 322.33751251 -241.91355896 322.59388733 C-245.46253984 323.37814863 -249.01246565 324.15802274 -252.5625 324.9375 C-256.07475639 325.71155166 -259.58680336 326.48654364 -263.09872437 327.26211548 C-265.39845555 327.76960705 -267.69844123 328.27594676 -269.99868774 328.78109741 C-275.47554612 329.98646498 -280.94581668 331.21270296 -286.40576172 332.49267578 C-287.40921127 332.72660538 -288.41266083 332.96053497 -289.44651794 333.20155334 C-291.31461776 333.63889187 -293.18147798 334.08157575 -295.04676819 334.53074646 C-305.5243295 336.97875345 -305.5243295 336.97875345 -310.6875 334.9375 C-313.71959903 332.39709271 -315.19047601 329.81926302 -316 326 C-315.86170045 320.14272827 -314.55601404 314.33717146 -313.28173828 308.63793945 C-313.02540115 307.46536591 -313.02540115 307.46536591 -312.7638855 306.269104 C-312.20426587 303.71605505 -311.63768747 301.16461703 -311.0703125 298.61328125 C-310.67517979 296.82451887 -310.28023458 295.03571506 -309.88546753 293.24687195 C-309.05990508 289.51174488 -308.2306114 285.77746935 -307.39892578 282.04370117 C-306.33560514 277.26762439 -305.28393263 272.48906622 -304.23530769 267.70974445 C-303.42408909 264.02044115 -302.60556847 260.33278635 -301.78496933 256.64555931 C-301.39414677 254.88432436 -301.00584339 253.12252837 -300.62015152 251.36016273 C-300.08003091 248.89631035 -299.52981185 246.43491979 -298.97705078 243.97387695 C-298.74311615 242.89132881 -298.74311615 242.89132881 -298.50445557 241.78691101 C-296.36860586 232.40857009 -291.76051118 227.32515294 -285.10218811 220.70777893 C-284.18112524 219.78062496 -283.26006237 218.85347098 -282.3110885 217.89822143 C-279.75960952 215.33035606 -277.19886329 212.77191207 -274.63645303 210.21496093 C-271.87219788 207.45337769 -269.11656759 204.68321051 -266.35977173 201.91418457 C-260.95845373 196.49181437 -255.54890774 191.07772573 -250.13616324 185.66676397 C-245.73423557 181.2661445 -241.33487421 176.86297542 -236.93731499 172.45799065 C-235.66997672 171.18855313 -234.40263762 169.91911644 -233.13529772 168.64968055 C-232.50446279 168.0178021 -231.87362787 167.38592365 -231.22367673 166.73489737 C-219.29189214 154.78420985 -207.35014626 142.84351433 -195.40549707 130.90568703 C-184.49066173 119.99642209 -173.58906981 109.07403131 -162.69359941 98.1454289 C-151.49774784 86.9157976 -140.29259448 75.69552432 -129.07753175 64.48507828 C-122.7847433 58.19453084 -116.49572216 51.90032464 -110.21653938 45.59619331 C-104.86822858 40.22681361 -99.51120797 34.86631174 -94.14293433 29.51688785 C-91.40704803 26.79012649 -88.67524264 24.059597 -85.95430946 21.31790733 C-82.99661985 18.33790702 -80.01968983 15.37787653 -77.04066467 12.41920471 C-76.19441987 11.56044206 -75.34817506 10.7016794 -74.47628647 9.81689364 C-53.7513814 -10.60698711 -25.22114083 -13.84690085 0 0 Z " fill="#FBFBFB" transform="translate(765,410)"/>
<path d="M0 0 C1.11352713 0.94767085 2.2260864 1.89647901 3.33824253 2.84575844 C3.9579038 3.37400235 4.57756507 3.90224626 5.21600395 4.44649756 C7.58105794 6.50598483 9.80317497 8.68351617 12.01733398 10.90380859 C12.93775986 11.82431 13.85818573 12.7448114 14.8065033 13.69320679 C15.78642152 14.67822924 16.76628374 15.66330741 17.74609375 16.6484375 C18.76720048 17.67141306 19.788531 18.69416528 20.81007385 19.71670532 C23.47711353 22.38753361 26.14113436 25.06135282 28.80450439 27.73583984 C31.5312385 30.47286736 34.26086305 33.20700901 36.99023438 35.94140625 C42.32963089 41.29147548 47.66583652 46.64471273 53 52 C48.85992817 56.89845577 44.59912583 61.63087179 40.17935181 66.27735901 C39.51701046 66.97583307 38.85466912 67.67430713 38.17225683 68.39394706 C35.96561421 70.71869269 33.75581198 73.04040093 31.54541016 75.36157227 C30.76848186 76.17836267 29.99155357 76.99515308 29.191082 77.83669472 C14.25072032 93.53643031 -0.82782115 109.10109762 -15.96947386 124.60645774 C-18.45503096 127.15184718 -20.93951876 129.69827789 -23.42333984 132.24536133 C-23.91754471 132.75211621 -24.41174957 133.2588711 -24.92093034 133.78098219 C-31.86261963 140.90363773 -38.74015086 148.08327753 -45.57037798 155.31282406 C-57.34349583 167.77417899 -69.22565392 180.11924236 -81.3359375 192.25390625 C-81.80309799 192.72244194 -82.27025848 193.19097762 -82.75157535 193.67371136 C-112.97602058 223.94191323 -140.14830263 244.85908688 -184.20669556 245.08653259 C-185.80456836 245.06422701 -187.40239144 245.0366322 -189 245 C-189.99 245 -190.98 245 -192 245 C-189.85006609 232.91142315 -187.29041324 220.93253065 -184.61108398 208.95141602 C-183.93174891 205.91176704 -183.25760436 202.87099818 -182.58398438 199.83007812 C-182.14874199 197.87493219 -181.71320584 195.91985163 -181.27734375 193.96484375 C-181.07833969 193.06684555 -180.87933563 192.16884735 -180.67430115 191.24363708 C-180.48392776 190.39487503 -180.29355438 189.54611298 -180.09741211 188.67163086 C-179.93325302 187.93601425 -179.76909393 187.20039764 -179.59996033 186.44248962 C-179.30297997 185.23345726 -179.30297997 185.23345726 -179 184 C-178.80117816 182.95057724 -178.60235632 181.90115448 -178.39750957 180.81993103 C-176.96678773 175.90843316 -173.61760285 172.9400252 -170.03988647 169.43861389 C-168.95314005 168.34545928 -168.95314005 168.34545928 -167.84443915 167.23022074 C-165.41631588 164.79386872 -162.97076748 162.37580598 -160.52490234 159.95727539 C-158.77971326 158.21349678 -157.03562466 156.46861621 -155.29255676 154.72271729 C-151.53870259 150.96772491 -147.77732758 147.22052181 -144.00886154 143.48021126 C-138.56036792 138.07239871 -133.12577689 132.65078854 -127.69445081 127.22574048 C-118.88157576 118.42380139 -110.05759905 109.6330799 -101.2265625 100.84936523 C-92.64940939 92.3181258 -84.07753734 83.78163682 -75.51269531 75.23803711 C-74.98452254 74.71117796 -74.45634977 74.1843188 -73.91217177 73.64149422 C-71.26244645 70.99829422 -68.61282443 68.35499071 -65.96325374 65.71163571 C-43.99149106 43.79168427 -22.00149674 21.89010856 0 0 Z " fill="#000000" transform="translate(667,475)"/>
<path d="M0 0 C8.0748738 6.9351769 14.49583475 14.76939999 15.59765625 25.6484375 C15.82084953 38.9612605 12.94066968 47.87212886 3.53320312 57.67919922 C1.77634703 59.4599545 0.00206519 61.22221192 -1.7734375 62.984375 C-3.3692759 64.59166759 -4.96427699 66.19979179 -6.55859375 67.80859375 C-10.94318655 72.22117973 -15.35089936 76.6098437 -19.7734375 80.984375 C-26.05856754 75.79676918 -31.77654908 70.11010234 -37.51953125 64.3359375 C-38.54063798 63.31296194 -39.5619685 62.29020972 -40.58351135 61.26766968 C-43.25055103 58.59684139 -45.91457186 55.92302218 -48.57794189 53.24853516 C-51.304676 50.51150764 -54.03430055 47.77736599 -56.76367188 45.04296875 C-62.10306839 39.69289952 -67.43927402 34.33966227 -72.7734375 28.984375 C-67.59870674 22.85038469 -62.1198962 17.1128731 -56.4609375 11.421875 C-55.11225586 10.04225586 -55.11225586 10.04225586 -53.73632812 8.63476562 C-38.17901912 -7.01253504 -19.56653651 -14.2201871 0 0 Z " fill="#010101" transform="translate(755.7734375,431.015625)"/>
<path d="M0 0 C0.70719885 -0.00226556 1.41439771 -0.00453111 2.14302683 -0.00686532 C4.50662283 -0.01318247 6.87016115 -0.01237744 9.23376465 -0.0115509 C10.93080214 -0.01454376 12.62783896 -0.01794658 14.32487488 -0.02172852 C18.93014319 -0.03055828 23.53539291 -0.03290616 28.14066887 -0.0335443 C31.98525326 -0.03449427 35.82983334 -0.03817345 39.67441607 -0.0417164 C48.74319204 -0.0498565 57.81195809 -0.05230098 66.8807373 -0.05158997 C76.23804352 -0.05098877 85.59529215 -0.06155005 94.95258379 -0.07733363 C102.98666928 -0.09040271 111.02073594 -0.09577415 119.05483198 -0.09513456 C123.85321038 -0.09487945 128.65153758 -0.09773773 133.4499054 -0.10831261 C137.96100346 -0.11798334 142.47200123 -0.11807982 146.9831028 -0.11079597 C148.63871723 -0.10974897 150.29433788 -0.11211988 151.94994164 -0.11815643 C154.20982882 -0.1258628 156.46936846 -0.12124074 158.72924805 -0.11352539 C160.62623569 -0.11434254 160.62623569 -0.11434254 162.56154633 -0.1151762 C166.83262614 0.20665233 169.66345561 1.26620225 173.11462402 3.75871277 C175.55407062 7.06939029 176.07607865 10.05101196 175.86462402 14.13371277 C174.29131919 17.85996107 172.31346267 20.04350753 168.86462402 22.13371277 C165.22142114 23.36013339 161.68253957 23.26515853 157.86296082 23.27415466 C157.15802752 23.27712579 156.45309422 23.28009691 155.72679931 23.28315806 C153.36476985 23.29182938 151.00279118 23.29335198 148.64074707 23.29484558 C146.94710177 23.29947484 145.2534575 23.30449965 143.55981445 23.30989075 C138.95848878 23.32300582 134.35717769 23.3294579 129.75583625 23.33390141 C126.88062135 23.33683341 124.00541042 23.34093844 121.13019753 23.34540558 C112.13284184 23.3590778 103.13549525 23.36874596 94.13812989 23.37260747 C83.7545996 23.3770885 73.37120093 23.39463967 62.98771065 23.42360806 C54.95955882 23.44522748 46.93144402 23.45531188 38.90326339 23.45664859 C34.10924679 23.45769637 29.31535396 23.46359868 24.52136803 23.4814682 C20.01106423 23.49795348 15.50097719 23.50010217 10.99065399 23.49132919 C9.33748862 23.49055908 7.68431158 23.49489816 6.03117561 23.50478745 C3.76960615 23.51752051 1.50880288 23.51162336 -0.75276184 23.50120544 C-2.01687551 23.502672 -3.28098917 23.50413857 -4.58340931 23.50564957 C-8.80435161 23.06366238 -11.39341057 22.12104204 -15.13537598 20.13371277 C-17.45558527 16.36337267 -18.13537598 13.92933186 -18.13537598 9.50871277 C-16.92165648 5.41240948 -15.4995711 3.73331809 -12.13537598 1.13371277 C-8.0961603 0.00055567 -4.17737128 0.00553558 0 0 Z " fill="#F4F4F4" transform="translate(271.1353759765625,635.8662872314453)"/>
</svg>
